{"glyphs":{":":{"x_min":0,"x_max":243,"ha":243,"o":"m 185 64 q 185 51 179 39 q 174 28 166 19 q 157 11 146 6 q 134 1 122 1 q 108 1 97 6 q 85 11 77 19 q 68 28 63 39 q 59 51 59 64 q 59 77 63 88 q 68 100 77 108 q 85 117 97 122 q 108 127 122 127 q 134 127 146 122 q 157 117 166 108 q 174 100 179 88 q 185 77 185 64 z m 185 464 q 185 451 179 439 q 174 428 166 419 q 157 411 146 406 q 134 401 122 401 q 108 401 97 406 q 85 411 77 419 q 68 428 63 439 q 59 451 59 464 q 59 477 63 488 q 68 500 77 508 q 85 517 97 522 q 108 527 122 527 q 134 527 146 522 q 157 517 166 508 q 174 500 179 488 q 185 477 185 464 z"},"$":{"x_min":0,"x_max":531,"ha":531,"o":"m 495 350 q 495 305 486 270 q 478 236 463 210 q 449 185 431 167 q 413 150 394 140 q 375 130 356 125 q 338 121 323 121 l 323 0 l 208 0 l 208 121 l 94 121 l 94 235 l 322 235 q 325 235 332 237 q 338 239 346 245 q 354 251 361 262 q 369 274 374 293 l 94 293 q 82 293 72 297 q 61 302 53 309 q 46 317 41 327 q 37 338 37 350 q 37 392 44 424 q 51 456 63 480 q 75 503 89 520 q 103 536 117 546 q 132 558 148 565 q 163 571 176 574 q 188 578 197 578 q 206 579 208 579 l 208 700 l 323 700 l 323 579 l 438 579 l 438 465 l 209 465 q 207 465 200 463 q 193 461 186 455 q 178 449 170 438 q 163 426 158 407 l 438 407 q 450 407 460 403 q 470 398 478 391 q 486 383 490 372 q 495 362 495 350 z"},"?":{"x_min":0,"x_max":666,"ha":666,"o":"m 624 465 q 624 438 614 407 q 605 375 584 349 q 562 322 529 304 q 495 286 446 286 l 338 286 l 338 172 l 210 172 l 210 350 q 210 363 215 375 q 220 386 229 395 q 237 404 249 409 q 260 414 273 414 l 446 414 q 471 414 484 427 q 497 439 497 465 l 497 522 q 497 547 484 560 q 471 573 446 573 l 39 573 l 39 700 l 446 700 q 473 700 504 691 q 535 681 562 660 q 588 639 606 605 q 624 571 624 522 z m 336 64 q 336 51 332 39 q 327 28 318 19 q 310 11 298 6 q 287 1 273 1 q 261 1 249 6 q 238 11 229 19 q 221 28 216 39 q 210 51 210 64 q 210 77 216 88 q 221 100 229 108 q 238 117 249 122 q 261 127 273 127 q 287 127 298 122 q 310 117 318 108 q 327 100 332 88 q 336 77 336 64 z"},"<":{"x_min":0,"x_max":525,"ha":525,"o":"m 476 612 l 185 351 l 476 96 l 292 96 l 57 303 q 35 321 35 351 q 35 365 40 377 q 46 389 56 398 l 294 612 z"},"'":{"x_min":0,"x_max":212,"ha":212,"o":"m 146 425 l 65 425 l 47 671 l 167 671 z"},"=":{"x_min":0,"x_max":591,"ha":591,"o":"m 524 407 l 66 407 l 66 522 l 524 522 z m 524 178 l 66 178 l 66 293 l 524 293 z"},"a":{"x_min":0,"x_max":653,"ha":653,"o":"m 604 175 q 604 148 595 118 q 586 87 565 61 q 544 35 511 18 q 478 0 430 0 l 201 0 q 174 0 144 9 q 113 19 87 39 q 61 60 43 94 q 26 127 26 175 q 26 201 35 232 q 44 263 65 289 q 86 315 119 333 q 153 350 201 350 l 430 350 l 430 229 l 201 229 q 175 229 161 213 q 146 197 146 174 q 146 149 163 135 q 179 121 202 121 l 430 121 q 456 121 470 137 q 484 152 484 176 l 484 353 q 484 378 469 393 q 453 407 430 407 l 151 407 l 151 528 l 430 528 q 456 528 487 519 q 517 509 543 489 q 569 468 587 434 q 604 401 604 353 z"},"L":{"x_min":0,"x_max":736,"ha":736,"o":"m 717 0 l 138 0 q 124 0 112 5 q 101 10 92 18 q 83 27 79 39 q 74 50 74 64 l 74 700 l 201 700 l 201 127 l 717 127 z"},"3":{"x_min":0,"x_max":719,"ha":719,"o":"m 651 178 q 651 129 633 95 q 615 61 589 40 q 562 19 531 9 q 500 0 473 0 l 65 0 l 65 127 l 473 127 q 499 127 511 140 q 523 153 523 178 l 523 286 l 65 286 l 65 414 l 523 414 l 523 521 q 523 573 473 573 l 65 573 l 65 700 l 473 700 q 505 700 531 692 q 557 684 577 670 q 597 656 611 638 q 625 620 634 600 q 643 580 647 560 q 651 540 651 522 z"},";":{"x_min":0,"x_max":251,"ha":251,"o":"m 196 464 q 196 451 191 439 q 186 428 177 419 q 168 411 157 406 q 146 401 133 401 q 120 401 108 406 q 97 411 88 419 q 80 428 75 439 q 70 451 70 464 q 70 477 75 488 q 80 500 88 508 q 97 517 108 522 q 120 527 133 527 q 146 527 157 522 q 168 517 177 508 q 186 500 191 488 q 196 477 196 464 z m 119 -90 l 30 -90 l 75 156 l 195 156 z"},"J":{"x_min":0,"x_max":734,"ha":734,"o":"m 663 178 q 663 140 649 107 q 636 75 613 51 q 589 27 556 13 q 523 0 485 0 l 20 0 l 20 127 l 485 127 q 508 127 521 140 q 535 154 535 178 l 535 700 l 663 700 z"},"V":{"x_min":0,"x_max":772,"ha":772,"o":"m 774 700 l 443 25 q 435 9 420 0 q 404 -10 386 -10 q 368 -10 352 0 q 337 9 329 25 l -2 700 l 140 700 l 386 196 l 633 700 z"},"\"":{"x_min":0,"x_max":382,"ha":382,"o":"m 146 425 l 65 425 l 47 671 l 167 671 z m 316 425 l 236 425 l 217 671 l 336 671 z"},"7":{"x_min":0,"x_max":641,"ha":641,"o":"m 610 668 q 618 653 618 636 q 618 619 610 604 l 258 0 l 111 0 l 444 573 l 33 573 l 33 700 l 555 700 q 572 700 587 692 q 602 683 610 668 z"},"S":{"x_min":0,"x_max":778,"ha":778,"o":"m 747 206 q 747 168 737 138 q 728 108 712 85 q 696 62 675 46 q 654 30 632 20 q 609 10 586 5 q 563 0 542 0 l 53 0 l 53 127 l 542 127 q 579 127 599 148 q 620 170 620 206 q 620 224 614 238 q 609 253 599 264 q 589 274 574 280 q 560 286 542 286 l 250 286 q 220 286 184 297 q 148 308 118 333 q 87 357 67 396 q 47 436 47 493 q 47 550 67 590 q 87 629 118 654 q 148 678 184 689 q 220 700 250 700 l 683 700 l 683 573 l 250 573 q 214 573 194 551 q 174 529 174 493 q 174 457 194 435 q 214 414 250 414 l 542 414 l 543 414 q 564 414 587 408 q 610 403 633 393 q 655 382 676 365 q 696 349 712 326 q 728 303 737 273 q 747 244 747 206 z"},"}":{"x_min":0,"x_max":424,"ha":424,"o":"m 414 350 q 414 337 409 325 q 404 313 395 305 q 387 296 375 291 q 364 286 351 286 q 326 286 312 273 q 299 261 299 235 l 300 64 q 300 31 291 5 q 281 -21 266 -41 q 250 -61 230 -75 q 209 -89 187 -98 q 165 -107 142 -111 q 120 -115 100 -115 l 37 -115 l 36 13 l 100 13 q 106 13 118 14 q 130 16 142 21 q 154 26 163 36 q 172 46 172 63 l 172 236 q 172 262 181 292 q 190 323 209 349 q 192 370 181 399 q 170 427 170 465 l 170 636 l 170 637 q 168 651 161 660 q 155 669 145 675 q 135 681 123 684 q 111 686 99 686 l 35 686 l 35 813 l 99 813 q 138 813 174 801 q 210 788 238 765 q 266 742 282 709 q 298 677 298 637 q 298 634 298 591 q 299 548 299 465 q 299 440 312 427 q 324 414 351 414 q 364 414 375 408 q 387 403 395 395 q 404 386 409 375 q 414 363 414 350 z"},"Z":{"x_min":0,"x_max":713,"ha":713,"o":"m 673 662 q 680 645 677 626 q 674 607 662 594 l 243 127 l 672 127 l 672 0 l 100 0 q 81 0 65 10 q 49 21 42 38 q 33 55 36 74 q 40 92 52 106 l 472 573 l 42 573 l 42 700 l 615 700 q 633 700 649 690 q 665 679 673 662 z"},"x":{"x_min":0,"x_max":695,"ha":695,"o":"m 663 528 l 435 279 l 691 0 l 517 0 l 348 184 l 179 0 l 3 0 l 260 280 l 33 528 l 207 528 l 347 375 l 488 528 z"},")":{"x_min":0,"x_max":427,"ha":427,"o":"m 390 350 q 390 302 379 256 q 369 209 352 165 q 334 121 312 80 q 291 40 267 5 q 244 -30 222 -59 q 200 -87 183 -108 l 7 -108 l 52 -63 q 52 -62 68 -46 q 83 -29 107 0 q 130 30 157 69 q 185 109 208 155 q 231 200 246 250 q 262 300 262 350 q 262 400 246 450 q 231 500 208 546 q 185 591 157 631 q 130 670 107 700 q 83 729 68 746 q 52 763 52 763 l 7 808 l 183 808 q 200 788 222 759 q 244 730 267 695 q 291 660 312 620 q 334 580 352 535 q 369 491 379 445 q 390 398 390 350 z"},"&":{"x_min":0,"x_max":671,"ha":671,"o":"m 634 178 l 577 178 l 576 177 q 576 146 568 121 q 560 96 546 77 q 533 58 516 44 q 498 31 479 22 q 460 14 441 10 q 422 6 405 6 l 232 6 q 187 6 155 23 q 123 40 102 65 q 82 91 72 121 q 62 150 61 176 l 61 235 q 61 273 72 302 q 83 330 101 350 q 80 376 70 407 q 61 438 61 465 q 61 512 78 545 q 95 578 121 598 q 146 618 177 627 q 207 636 232 636 l 519 636 l 519 522 l 232 522 q 219 522 209 518 q 198 514 191 506 q 183 498 179 488 q 175 477 176 465 q 176 437 191 422 q 207 407 232 407 l 405 407 l 405 293 l 232 293 q 206 293 191 276 q 176 260 176 235 l 176 180 q 176 154 192 137 q 208 121 232 121 l 404 121 q 431 121 446 137 q 461 153 461 178 q 461 199 469 220 q 476 240 491 257 q 505 273 527 283 q 548 293 576 293 l 634 293 z"},"_":{"x_min":0,"x_max":681,"ha":681,"o":"m 620 -172 l 62 -172 l 62 -58 l 620 -58 z"},"v":{"x_min":0,"x_max":675,"ha":675,"o":"m 689 528 q 668 461 639 396 q 610 331 573 272 q 536 213 490 163 q 443 113 387 77 q 332 41 266 20 q 200 -1 124 -1 q 110 -1 99 4 q 87 9 78 17 q 69 26 64 37 q 60 49 60 62 l 60 528 l 187 528 l 187 131 q 233 131 276 151 q 318 171 356 204 q 395 237 427 279 q 459 321 485 365 q 510 409 528 452 q 546 494 555 528 z"},"O":{"x_min":0,"x_max":860,"ha":860,"o":"m 809 283 q 809 219 787 166 q 765 112 726 73 q 687 34 633 12 q 580 -10 517 -10 l 345 -10 q 282 -10 228 12 q 174 34 135 73 q 96 112 74 166 q 52 219 52 283 l 52 417 q 52 480 74 534 q 96 588 135 627 q 174 666 228 688 q 282 710 345 710 l 517 710 q 580 710 633 688 q 687 666 726 627 q 765 588 787 534 q 809 480 809 417 z m 682 417 q 682 455 670 485 q 658 516 636 537 q 614 559 584 571 q 553 583 517 583 l 345 583 q 308 583 277 571 q 247 559 225 537 q 203 516 191 485 q 179 455 179 417 l 179 283 q 179 246 191 215 q 203 185 225 163 q 247 141 277 129 q 308 117 345 117 l 516 117 q 553 117 583 129 q 614 141 636 163 q 658 185 670 215 q 682 246 682 283 z"},"(":{"x_min":0,"x_max":427,"ha":427,"o":"m 420 808 l 375 763 q 375 763 359 746 q 343 729 320 700 q 296 670 269 631 q 242 591 219 546 q 195 500 180 450 q 165 400 165 350 q 165 300 180 250 q 195 200 219 155 q 242 109 269 69 q 296 30 320 0 q 343 -29 359 -46 q 375 -62 375 -63 l 420 -108 l 245 -108 q 227 -87 205 -59 q 183 -30 160 5 q 137 40 115 80 q 93 121 76 165 q 59 209 48 256 q 38 302 38 350 q 38 398 48 445 q 59 491 76 535 q 93 580 115 620 q 137 660 160 695 q 183 730 205 759 q 227 788 245 808 z"},"C":{"x_min":0,"x_max":747,"ha":747,"o":"m 701 0 l 243 0 q 225 0 205 4 q 185 8 165 17 q 145 26 127 40 q 109 54 95 73 q 81 93 73 119 q 64 146 64 178 l 64 522 q 64 540 69 560 q 73 580 82 600 q 90 620 104 638 q 119 656 138 670 q 158 684 184 692 q 210 700 243 700 l 701 700 l 701 573 l 243 573 q 218 573 205 560 q 191 547 191 521 l 191 178 q 191 154 205 140 q 218 127 243 127 l 701 127 z"},"W":{"x_min":0,"x_max":1002,"ha":1002,"o":"m 968 700 l 851 44 q 847 24 833 10 q 819 -4 800 -8 q 780 -11 762 -3 q 744 4 734 21 l 501 403 l 269 21 q 260 7 246 -1 q 231 -9 215 -9 q 192 -9 174 6 q 157 21 153 44 l 35 700 l 164 700 l 248 238 l 448 557 q 456 571 470 579 q 485 587 501 587 q 518 587 532 579 q 546 571 556 557 l 755 238 l 839 700 z"},"A":{"x_min":0,"x_max":834,"ha":834,"o":"m 761 0 l 634 0 l 634 172 l 188 172 l 188 0 l 61 0 l 61 350 q 61 427 87 491 q 113 556 160 602 q 207 648 271 674 q 335 700 411 700 l 697 700 q 710 700 722 695 q 733 690 742 682 q 751 673 756 661 q 761 649 761 636 z m 188 299 l 634 299 l 634 573 l 411 573 q 405 573 386 572 q 367 570 343 563 q 318 556 291 542 q 263 528 240 503 q 217 478 202 441 q 188 403 188 350 z"},"f":{"x_min":0,"x_max":550,"ha":550,"o":"m 527 401 l 240 401 l 240 528 l 527 528 z m 527 630 l 241 630 q 215 630 202 617 q 188 604 188 579 l 188 0 l 62 0 l 62 579 q 62 612 70 638 q 78 664 92 683 q 106 703 124 717 q 142 731 162 740 q 182 749 202 753 q 222 757 240 757 l 527 757 z"},"Q":{"x_min":0,"x_max":860,"ha":860,"o":"m 809 283 q 809 234 796 191 q 783 148 759 113 q 735 78 702 51 q 668 25 627 10 l 776 -108 l 592 -108 l 470 -10 l 345 -10 q 282 -10 228 12 q 174 34 135 73 q 96 112 74 166 q 52 219 52 283 l 52 417 q 52 480 74 534 q 96 588 135 627 q 174 666 228 688 q 282 710 345 710 l 517 710 q 580 710 633 688 q 687 666 726 627 q 765 588 787 534 q 809 480 809 417 z m 682 417 q 682 455 670 485 q 658 516 636 537 q 614 559 584 571 q 553 583 517 583 l 345 583 q 308 583 277 571 q 247 559 225 537 q 203 516 191 485 q 179 455 179 417 l 179 283 q 179 246 191 215 q 203 185 225 163 q 247 141 277 129 q 308 117 345 117 l 516 117 q 553 117 583 129 q 614 141 636 163 q 658 185 670 215 q 682 246 682 283 z"},"w":{"x_min":0,"x_max":913,"ha":913,"o":"m 929 528 q 898 460 863 394 q 828 329 790 270 q 751 211 711 162 q 671 112 632 76 q 593 41 555 20 q 518 0 485 0 q 471 0 459 5 q 448 10 439 18 q 430 27 425 39 q 420 50 420 64 l 420 301 l 168 19 q 159 9 147 5 q 136 0 124 0 q 110 0 99 5 q 87 10 79 18 q 70 27 65 39 q 60 50 60 64 l 60 528 l 187 528 l 187 227 l 439 510 q 453 523 472 527 q 491 531 509 523 q 527 516 537 500 q 548 484 548 465 l 548 163 q 589 203 622 247 q 655 291 684 337 q 712 384 738 432 q 763 480 787 528 z"},"-":{"x_min":0,"x_max":571,"ha":571,"o":"m 515 293 l 57 293 l 57 407 l 515 407 z"},"E":{"x_min":0,"x_max":755,"ha":755,"o":"m 649 286 l 249 286 l 249 414 l 649 414 z m 707 0 l 249 0 q 222 0 191 9 q 160 19 133 40 q 106 61 89 95 q 71 129 71 178 l 71 636 q 71 649 76 661 q 81 673 89 682 q 98 690 109 695 q 121 700 135 700 l 707 700 l 707 573 l 198 573 l 198 178 q 198 153 211 140 q 224 127 250 127 l 707 127 z"},"s":{"x_min":0,"x_max":599,"ha":599,"o":"m 570 178 q 570 146 562 119 q 553 93 540 73 q 526 54 508 40 q 490 26 470 17 q 450 8 430 4 q 410 0 392 0 l 48 0 l 48 127 l 391 127 q 417 127 430 140 q 443 153 443 178 q 440 229 392 229 l 195 229 q 153 229 124 244 q 94 258 76 280 q 58 302 50 328 q 42 353 42 375 q 42 417 57 447 q 72 476 95 494 q 118 512 145 520 q 171 528 195 528 l 507 528 l 507 401 l 196 401 q 186 401 180 399 q 175 396 172 393 q 169 389 169 385 q 168 381 168 377 q 169 369 171 365 q 174 360 177 358 q 181 356 186 356 q 190 356 195 356 l 392 356 q 440 356 475 338 q 509 321 530 294 q 551 268 560 236 q 570 205 570 178 z"},">":{"x_min":0,"x_max":525,"ha":525,"o":"m 230 612 l 470 398 q 479 389 485 377 q 491 365 491 351 q 491 337 485 324 q 479 312 469 303 l 232 96 l 50 96 l 341 351 l 50 612 z"},"l":{"x_min":0,"x_max":313,"ha":313,"o":"m 292 0 l 235 0 q 208 0 177 9 q 146 19 119 40 q 92 61 74 95 q 57 129 57 178 l 57 751 l 184 751 l 184 178 q 184 155 198 141 q 213 127 235 127 l 292 127 z"},"8":{"x_min":0,"x_max":746,"ha":746,"o":"m 695 178 q 695 160 691 140 q 687 120 677 100 q 668 81 654 62 q 640 44 620 31 q 601 17 575 8 q 549 0 517 0 l 229 0 q 203 0 172 9 q 141 19 114 40 q 87 61 70 95 q 52 129 52 178 l 52 235 q 52 253 56 274 q 60 294 69 314 q 78 334 92 353 q 106 371 126 384 q 118 404 113 425 q 109 446 109 465 l 109 522 q 109 571 127 605 q 145 639 171 660 q 198 681 229 691 q 260 700 287 700 l 458 700 q 491 700 517 692 q 543 684 563 670 q 583 656 597 638 q 611 620 620 600 q 628 580 633 560 q 637 540 637 522 l 637 465 q 637 417 620 382 q 635 372 649 358 q 663 344 673 326 q 683 308 689 285 q 695 262 695 235 z m 510 521 q 510 547 497 560 q 483 573 458 573 l 288 573 q 262 573 249 560 q 237 547 237 522 l 237 465 q 237 439 250 427 q 263 414 287 414 l 458 414 q 484 414 497 427 q 510 440 510 465 z m 566 235 q 566 259 553 273 q 540 286 517 286 l 229 286 q 206 286 192 271 q 179 257 179 235 l 179 178 q 179 155 193 141 q 208 127 229 127 l 517 127 q 541 127 554 142 q 566 156 566 178 z"},"\\":{"x_min":0,"x_max":659,"ha":659,"o":"m 618 0 l 481 0 l 40 700 l 176 700 z"},"e":{"x_min":0,"x_max":653,"ha":653,"o":"m 627 353 q 627 327 618 296 q 609 266 588 240 q 567 213 534 196 q 500 178 453 178 l 224 178 l 224 299 l 453 299 q 479 299 493 315 q 507 331 507 354 q 507 379 491 393 q 475 407 453 407 l 224 407 q 198 407 184 391 q 169 375 169 352 l 169 175 q 169 149 185 135 q 201 121 225 121 l 453 121 l 453 0 l 224 0 q 197 0 167 9 q 136 19 110 39 q 84 60 66 94 q 49 127 49 175 l 49 353 q 49 379 58 410 q 67 440 88 467 q 109 493 142 510 q 176 528 224 528 l 453 528 q 479 528 510 519 q 540 509 566 489 q 592 468 610 434 q 627 401 627 353 z"},"b":{"x_min":0,"x_max":690,"ha":690,"o":"m 642 178 q 642 160 637 140 q 633 120 625 100 q 616 81 602 62 q 588 44 568 31 q 548 17 522 8 q 497 0 464 0 l 235 0 q 217 0 197 4 q 177 8 157 17 q 137 26 119 40 q 101 54 87 73 q 73 93 65 119 q 57 146 57 178 l 57 751 l 184 751 l 184 178 q 184 155 198 141 q 213 127 235 127 l 464 127 q 488 127 501 141 q 515 155 515 178 l 515 350 q 515 374 500 387 q 486 401 464 401 l 235 401 l 235 528 l 464 528 q 482 528 502 524 q 522 520 542 511 q 562 502 580 488 q 598 474 611 454 q 625 435 633 409 q 642 383 642 350 z"},"%":{"x_min":0,"x_max":866,"ha":866,"o":"m 828 178 q 828 144 815 114 q 802 84 779 62 q 757 39 727 26 q 697 13 663 13 q 628 13 598 26 q 568 39 545 62 q 522 84 510 114 q 497 144 497 178 q 497 212 510 242 q 522 272 545 295 q 568 318 598 331 q 628 344 663 344 q 697 344 727 331 q 757 318 779 295 q 802 272 815 242 q 828 212 828 178 z m 667 636 l 308 6 l 190 6 l 551 636 z m 370 465 q 370 430 357 400 q 344 370 321 347 q 298 325 268 312 q 238 299 204 299 q 169 299 139 312 q 109 325 87 347 q 64 370 52 400 q 39 430 39 465 q 39 499 52 529 q 64 559 87 582 q 109 604 139 617 q 169 630 204 630 q 238 630 268 617 q 298 604 321 582 q 344 559 357 529 q 370 499 370 465 z m 726 178 q 726 191 721 203 q 716 214 707 223 q 699 232 687 237 q 676 242 663 242 q 649 242 638 237 q 626 232 617 223 q 609 214 604 203 q 599 191 599 178 q 599 165 604 154 q 609 142 617 134 q 626 125 638 120 q 649 115 663 115 q 676 115 687 120 q 699 125 707 134 q 716 142 721 154 q 726 165 726 178 z m 268 465 q 268 478 263 490 q 258 501 249 510 q 241 518 229 523 q 217 528 204 528 q 190 528 179 523 q 167 518 159 510 q 150 501 146 490 q 141 478 141 465 q 141 452 146 440 q 150 428 159 419 q 167 411 179 406 q 190 401 204 401 q 217 401 229 406 q 241 411 249 419 q 258 428 263 440 q 268 452 268 465 z"},"m":{"x_min":0,"x_max":874,"ha":874,"o":"m 531 0 l 404 0 l 404 350 q 404 375 391 388 q 377 401 352 401 l 187 401 l 187 0 l 60 0 l 60 465 q 60 478 64 490 q 69 501 78 510 q 87 518 99 523 q 110 528 124 528 l 353 528 q 379 528 409 519 q 439 509 467 489 l 467 528 l 639 528 q 657 528 677 524 q 697 520 717 511 q 736 502 754 488 q 772 474 786 454 q 800 435 808 409 q 816 383 816 350 l 816 0 l 689 0 l 689 350 q 689 375 677 388 q 665 401 639 401 l 524 401 q 531 377 531 350 z"},"#":{"x_min":0,"x_max":729,"ha":729,"o":"m 117 510 l 222 510 l 258 671 l 376 671 l 341 510 l 463 510 l 499 671 l 618 671 l 582 510 l 694 510 l 668 396 l 557 396 l 531 277 l 639 277 l 614 163 l 506 163 l 470 0 l 351 0 l 387 163 l 265 163 l 229 0 l 110 0 l 146 163 l 35 163 l 62 277 l 170 277 l 197 396 l 90 396 z m 290 277 l 412 277 l 438 396 l 315 396 z"},",":{"x_min":0,"x_max":225,"ha":225,"o":"m 112 -90 l 22 -90 l 68 156 l 188 156 z"},"n":{"x_min":0,"x_max":696,"ha":696,"o":"m 645 0 l 518 0 l 518 293 q 518 318 509 338 q 500 357 486 372 q 471 386 451 393 q 432 401 409 401 l 187 401 l 187 0 l 60 0 l 60 465 q 60 478 64 490 q 69 501 78 510 q 87 518 99 523 q 110 528 124 528 l 410 528 q 434 528 460 522 q 487 517 513 505 q 539 493 563 475 q 586 457 605 430 q 623 404 634 370 q 645 336 645 293 z"},"h":{"x_min":0,"x_max":703,"ha":703,"o":"m 646 0 l 520 0 l 520 350 q 520 375 507 388 q 494 401 469 401 l 240 401 l 240 528 l 469 528 q 487 528 507 524 q 527 520 547 511 q 566 502 584 488 q 603 474 616 454 q 630 435 638 409 q 646 383 646 350 z m 188 0 l 62 0 l 62 751 l 188 751 z"},"z":{"x_min":0,"x_max":601,"ha":601,"o":"m 560 489 q 567 471 564 452 q 560 434 547 420 l 253 127 l 559 127 l 559 0 l 101 0 q 81 0 65 11 q 49 22 42 39 q 34 57 38 76 q 42 95 56 109 l 348 401 l 42 401 l 42 528 l 501 528 q 521 528 536 518 q 552 507 560 489 z"},"B":{"x_min":0,"x_max":809,"ha":809,"o":"m 772 154 q 772 130 764 104 q 756 77 738 54 q 720 31 690 15 q 661 0 619 0 l 137 0 q 123 0 111 5 q 100 10 91 18 q 83 27 78 39 q 73 50 73 64 l 73 636 q 73 649 78 661 q 83 673 91 682 q 100 690 111 695 q 123 700 137 700 l 562 700 q 585 700 612 692 q 639 684 662 665 q 685 647 700 618 q 716 588 716 546 l 716 522 q 716 488 705 449 q 693 411 668 376 q 690 363 709 344 q 728 326 742 301 q 756 277 764 246 q 772 215 772 178 z m 646 178 q 646 203 638 223 q 630 243 616 257 q 602 271 582 279 q 562 286 537 286 l 250 286 l 250 414 l 479 414 q 504 414 524 422 q 544 429 559 443 q 573 458 580 477 q 588 497 588 522 l 588 546 q 588 573 562 573 l 200 573 l 200 127 l 619 127 q 622 127 627 127 q 632 128 636 130 q 640 133 643 139 q 646 145 646 155 z"},"K":{"x_min":0,"x_max":813,"ha":813,"o":"m 808 0 l 627 0 l 342 286 l 252 286 l 252 414 l 342 414 l 627 700 l 808 700 l 448 350 z m 202 0 l 75 0 l 75 700 l 202 700 z"},"R":{"x_min":0,"x_max":827,"ha":827,"o":"m 773 465 q 773 421 763 387 q 752 353 734 327 q 715 301 691 282 q 667 264 641 252 q 615 240 589 234 q 562 229 539 229 l 804 0 l 607 0 l 343 229 l 251 229 l 251 356 l 539 356 q 562 358 582 366 q 602 374 616 388 q 631 401 639 421 q 646 440 646 465 l 646 545 q 646 556 644 561 q 641 567 637 570 q 633 572 628 573 q 624 573 620 573 l 201 573 l 201 0 l 74 0 l 74 636 q 74 649 79 661 q 83 673 92 682 q 101 690 112 695 q 124 700 138 700 l 620 700 q 662 700 691 685 q 721 669 739 646 q 757 623 765 596 q 773 569 773 546 z"},"T":{"x_min":0,"x_max":726,"ha":726,"o":"m 707 573 l 427 573 l 427 0 l 300 0 l 300 573 l 20 573 l 20 700 l 707 700 z"},"P":{"x_min":0,"x_max":806,"ha":806,"o":"m 771 407 q 771 364 761 330 q 750 295 732 269 q 713 243 689 225 q 666 206 639 194 q 613 183 587 177 q 560 172 537 172 l 250 172 l 250 299 l 537 299 q 561 301 581 309 q 601 317 615 331 q 629 344 637 364 q 645 383 645 407 l 645 465 q 642 489 634 509 q 626 529 613 543 q 600 557 581 565 q 562 573 537 573 l 250 573 q 225 573 212 560 q 199 547 199 522 l 199 0 l 72 0 l 72 522 q 72 571 90 605 q 107 639 134 660 q 161 681 192 691 q 223 700 250 700 l 537 700 q 580 700 614 689 q 648 678 674 660 q 700 642 719 618 q 737 594 749 568 q 761 542 766 515 q 771 488 771 465 z"},"|":{"x_min":0,"x_max":260,"ha":260,"o":"m 194 -115 l 66 -115 l 66 815 l 194 815 z"},"t":{"x_min":0,"x_max":563,"ha":563,"o":"m 540 401 l 318 401 l 318 0 l 189 0 l 189 401 l 24 401 l 24 528 l 189 528 l 189 700 l 318 700 l 318 528 l 540 528 z"},"M":{"x_min":0,"x_max":962,"ha":962,"o":"m 889 0 l 761 0 l 761 417 l 536 21 q 527 6 512 -2 q 498 -10 480 -10 q 464 -10 449 -2 q 435 6 427 21 l 201 417 l 201 0 l 74 0 l 74 646 q 74 668 87 685 q 100 702 121 708 q 131 710 141 710 q 151 709 161 705 q 170 702 178 695 q 186 688 191 679 l 480 177 l 770 679 q 781 698 801 706 q 820 713 842 708 q 862 702 875 685 q 889 668 889 646 z"},"g":{"x_min":0,"x_max":690,"ha":690,"o":"m 634 -51 q 634 -83 625 -110 q 617 -136 604 -156 q 590 -175 572 -189 q 554 -203 534 -212 q 514 -221 494 -225 q 474 -229 456 -229 l 227 -229 l 227 -102 l 456 -102 q 481 -102 494 -89 q 507 -76 507 -51 l 507 350 q 507 375 494 388 q 481 401 456 401 l 227 401 q 203 401 189 386 q 176 372 176 350 l 176 178 q 176 153 189 140 q 202 127 228 127 l 456 127 l 456 0 l 227 0 q 208 0 188 4 q 168 8 149 17 q 129 26 111 40 q 93 54 79 73 q 65 93 57 119 q 49 146 49 178 l 49 350 q 49 368 53 388 q 57 408 66 428 q 75 448 89 466 q 103 484 122 498 q 142 511 168 520 q 194 528 227 528 l 456 528 q 474 528 494 524 q 514 520 534 511 q 554 502 572 488 q 590 474 604 454 q 617 435 625 409 q 634 383 634 350 z"},"j":{"x_min":0,"x_max":250,"ha":250,"o":"m 188 636 l 62 636 l 62 751 l 188 751 z m 188 -51 q 188 -83 180 -110 q 172 -136 158 -156 q 145 -175 126 -189 q 108 -203 89 -212 q 69 -221 49 -225 q 29 -229 11 -229 l -218 -229 l -218 -102 l 11 -102 q 36 -102 49 -89 q 62 -76 62 -51 l 62 528 l 188 528 z"},"i":{"x_min":0,"x_max":250,"ha":250,"o":"m 188 636 l 62 636 l 62 751 l 188 751 z m 188 0 l 62 0 l 62 528 l 188 528 z"},"y":{"x_min":0,"x_max":703,"ha":703,"o":"m 642 -51 q 642 -83 633 -110 q 625 -136 611 -156 q 598 -175 580 -189 q 562 -203 542 -212 q 522 -221 502 -225 q 482 -229 464 -229 l 235 -229 l 235 -102 l 464 -102 q 489 -102 502 -89 q 515 -76 515 -51 l 515 528 l 642 528 z m 464 0 l 235 0 q 208 0 177 9 q 146 19 119 40 q 92 61 74 95 q 57 129 57 178 l 57 528 l 184 528 l 184 178 q 184 153 197 140 q 210 127 236 127 l 464 127 z"},"@":{"x_min":0,"x_max":661,"ha":661,"o":"m 609 215 q 609 200 604 182 q 598 165 586 149 q 574 134 554 124 q 535 114 507 114 l 278 114 q 262 114 245 119 q 227 125 212 137 q 197 149 187 168 q 177 187 177 215 q 177 230 182 248 q 188 266 199 281 q 211 296 231 307 q 250 317 278 317 l 380 317 l 380 228 l 278 228 q 276 228 274 228 q 272 228 271 226 q 269 225 267 222 q 266 220 266 215 q 266 208 270 206 q 273 203 279 203 l 396 203 q 400 203 403 206 q 406 208 406 216 l 406 330 q 406 334 404 339 q 402 343 392 343 l 228 343 l 228 432 l 393 432 q 408 432 426 427 q 444 421 459 409 q 474 397 484 377 q 495 358 495 330 l 495 215 q 495 212 494 209 q 494 206 494 203 l 507 203 q 512 203 516 205 q 520 206 520 216 l 520 387 q 520 403 514 416 q 509 429 500 438 q 490 447 478 452 q 465 457 450 457 l 221 457 q 205 457 192 452 q 179 446 170 437 q 161 427 156 415 q 151 402 151 387 l 151 158 q 151 143 156 130 q 162 117 171 107 q 181 98 193 93 q 206 88 221 88 l 278 88 l 278 -1 l 221 -1 q 197 -1 169 7 q 141 16 117 35 q 93 54 77 84 q 62 114 62 158 l 62 387 q 62 411 70 439 q 78 467 97 490 q 116 514 146 530 q 177 546 221 546 l 450 546 q 474 546 501 538 q 529 529 553 510 q 577 492 593 461 q 609 431 609 387 z"},".":{"x_min":0,"x_max":205,"ha":205,"o":"m 166 64 q 166 51 160 39 q 155 28 147 19 q 138 11 127 6 q 115 1 103 1 q 89 1 78 6 q 66 11 58 19 q 49 28 44 39 q 40 51 40 64 q 40 77 44 88 q 49 100 58 108 q 66 117 78 122 q 89 127 103 127 q 115 127 127 122 q 138 117 147 108 q 155 100 160 88 q 166 77 166 64 z"},"p":{"x_min":0,"x_max":690,"ha":690,"o":"m 642 178 q 642 146 633 119 q 625 93 611 73 q 598 54 580 40 q 562 26 542 17 q 522 8 502 4 q 482 0 464 0 l 235 0 l 235 127 l 464 127 q 489 127 502 140 q 515 153 515 178 l 515 349 q 515 375 502 388 q 489 401 464 401 l 236 401 q 210 401 197 388 q 184 375 184 350 l 184 -165 l 57 -165 l 57 350 q 57 383 65 409 q 73 435 87 454 q 101 474 119 488 q 137 502 157 511 q 177 520 197 524 q 217 528 235 528 l 464 528 q 497 528 522 520 q 548 511 568 498 q 588 484 602 466 q 616 448 625 428 q 633 408 637 388 q 642 368 642 350 z"},"X":{"x_min":0,"x_max":787,"ha":787,"o":"m 394 450 l 607 700 l 781 700 l 479 349 l 779 0 l 606 0 l 394 248 l 182 0 l 9 0 l 308 349 l 8 700 l 180 700 z"},"*":{"x_min":0,"x_max":542,"ha":542,"o":"m 221 574 l 221 700 l 323 700 l 323 575 l 418 644 l 479 561 l 359 475 l 479 389 l 418 306 l 323 375 l 323 250 l 221 250 l 221 375 l 124 306 l 64 389 l 184 475 l 64 561 l 124 644 z"},"Y":{"x_min":0,"x_max":781,"ha":781,"o":"m 741 466 q 741 422 730 388 q 719 354 701 328 q 683 302 658 283 q 634 265 608 253 q 583 241 556 235 q 529 230 506 230 l 455 230 l 455 0 l 327 0 l 327 230 l 276 230 q 252 230 226 235 q 199 241 173 253 q 147 265 123 283 q 99 302 81 328 q 62 354 52 388 q 41 423 41 466 l 41 700 l 167 700 l 167 466 q 167 441 175 421 q 183 401 197 387 q 211 373 232 365 q 252 358 277 358 l 506 358 q 524 361 543 365 q 562 370 578 381 q 593 393 604 413 q 614 433 614 466 l 614 700 l 741 700 z"},"c":{"x_min":0,"x_max":616,"ha":616,"o":"m 571 0 l 227 0 q 200 0 169 9 q 138 19 111 40 q 84 61 67 95 q 49 129 49 178 l 49 350 q 49 368 53 388 q 57 408 66 428 q 75 448 89 466 q 103 484 122 498 q 142 511 168 520 q 194 528 227 528 l 571 528 l 571 401 l 227 401 q 202 401 189 388 q 176 375 176 349 l 176 178 q 176 153 189 140 q 202 127 228 127 l 571 127 z"},"!":{"x_min":0,"x_max":260,"ha":260,"o":"m 174 172 l 86 172 l 57 700 l 204 700 z m 194 64 q 194 51 189 39 q 184 28 175 19 q 167 11 155 6 q 144 1 131 1 q 118 1 106 6 q 95 11 86 19 q 78 28 73 39 q 68 51 68 64 q 68 77 73 88 q 78 100 86 108 q 95 117 106 122 q 118 127 131 127 q 144 127 155 122 q 167 117 175 108 q 184 100 189 88 q 194 77 194 64 z"},"/":{"x_min":0,"x_max":659,"ha":659,"o":"m 620 700 l 178 0 l 42 0 l 484 700 z"},"[":{"x_min":0,"x_max":365,"ha":365,"o":"m 331 686 l 195 686 l 193 13 l 329 13 l 329 -115 l 130 -115 q 117 -115 105 -110 q 94 -105 84 -96 q 76 -87 71 -75 q 65 -63 65 -51 l 65 750 q 65 763 71 775 q 76 786 85 795 q 94 803 106 808 q 118 813 131 813 l 331 813 z"},"6":{"x_min":0,"x_max":744,"ha":744,"o":"m 187 414 l 524 414 q 551 414 582 405 q 613 395 640 374 q 667 353 685 318 q 703 284 703 235 l 703 178 q 703 160 698 140 q 694 120 685 100 q 676 81 662 62 q 648 44 629 31 q 609 17 583 8 q 557 0 524 0 l 294 0 q 271 0 244 5 q 218 11 192 23 q 166 35 142 53 q 118 71 100 97 q 82 124 71 158 q 60 192 60 235 l 60 465 q 60 508 71 542 q 82 576 100 602 q 118 628 142 647 q 166 666 192 677 q 218 689 244 695 q 271 700 294 700 l 613 700 l 613 573 l 294 573 q 270 571 250 563 q 230 555 216 541 q 202 527 194 508 q 187 489 187 465 z m 187 286 l 187 235 q 187 210 195 190 q 204 170 218 156 q 233 142 253 135 q 272 127 295 127 l 524 127 q 549 127 562 142 q 575 156 575 178 l 575 235 q 575 260 562 273 q 549 286 523 286 z"},"r":{"x_min":0,"x_max":545,"ha":545,"o":"m 521 401 l 236 401 q 210 401 197 388 q 184 375 184 350 l 184 0 l 57 0 l 57 350 q 57 383 65 409 q 73 435 87 454 q 101 474 119 488 q 137 502 157 511 q 177 520 197 524 q 217 528 235 528 l 521 528 z"},"2":{"x_min":0,"x_max":752,"ha":752,"o":"m 695 0 l 52 0 l 52 235 q 52 253 56 273 q 60 293 69 313 q 78 333 92 352 q 105 370 125 384 q 145 397 171 406 q 197 414 229 414 l 516 414 q 542 414 554 427 q 566 440 566 465 l 566 521 q 566 547 554 560 q 541 573 517 573 l 109 573 l 109 700 l 517 700 q 549 700 575 692 q 601 684 620 670 q 640 656 654 638 q 668 620 677 600 q 687 580 691 560 q 695 540 695 522 l 695 465 q 695 416 677 382 q 659 348 632 326 q 605 305 574 296 q 543 286 517 286 l 229 286 q 214 286 205 282 q 195 277 190 270 q 185 263 183 253 q 180 244 179 235 l 179 127 l 695 127 z"},"{":{"x_min":0,"x_max":424,"ha":424,"o":"m 390 686 l 327 686 q 314 686 302 683 q 289 681 278 675 q 267 669 260 660 q 253 650 253 637 l 253 636 l 253 465 q 253 427 243 399 q 232 370 215 349 q 235 323 244 292 q 252 262 252 236 l 252 63 q 252 46 261 36 q 270 26 282 21 q 294 16 307 14 q 319 13 326 13 l 389 13 l 389 -115 l 325 -115 q 305 -115 282 -111 q 259 -107 237 -98 q 215 -89 195 -75 q 174 -61 159 -41 q 144 -21 135 5 q 125 31 125 64 l 125 235 q 125 261 112 273 q 99 286 75 286 q 61 286 49 291 q 38 296 29 305 q 21 313 16 325 q 11 337 11 350 q 11 363 16 375 q 21 386 29 395 q 38 403 49 408 q 61 414 74 414 q 100 414 113 427 q 126 440 126 465 l 126 637 q 126 679 144 712 q 161 745 189 767 q 217 790 253 801 q 289 813 327 813 l 390 813 z"},"9":{"x_min":0,"x_max":744,"ha":744,"o":"m 42 465 l 42 522 q 42 540 46 560 q 50 580 59 600 q 67 620 82 638 q 96 656 115 670 q 135 684 161 692 q 187 700 220 700 l 449 700 q 472 700 499 695 q 526 689 552 677 q 578 666 602 647 q 626 628 644 602 q 663 576 674 542 q 685 508 685 465 l 685 235 q 685 192 674 158 q 663 124 644 97 q 626 71 602 53 q 578 35 552 23 q 526 11 499 5 q 472 0 449 0 l 132 0 l 132 127 l 449 127 q 473 129 492 137 q 512 145 527 158 q 541 171 549 191 q 557 210 557 235 l 557 286 l 220 286 q 202 286 182 290 q 162 294 142 303 q 122 312 104 326 q 86 340 72 360 q 58 380 50 406 q 42 432 42 465 z m 557 465 q 557 490 548 510 q 540 530 526 544 q 511 558 491 566 q 472 573 449 573 l 220 573 q 196 573 182 559 q 168 544 168 522 l 168 465 q 168 440 182 427 q 195 414 221 414 l 557 414 z"}," ":{"x_min":0,"x_max":325,"ha":325,"o":""},"I":{"x_min":0,"x_max":276,"ha":276,"o":"m 202 0 l 75 0 l 75 700 l 202 700 z"},"H":{"x_min":0,"x_max":849,"ha":849,"o":"m 202 414 l 647 414 l 647 700 l 774 700 l 774 0 l 647 0 l 647 286 l 202 286 l 202 0 l 75 0 l 75 700 l 202 700 z"},"4":{"x_min":0,"x_max":773,"ha":773,"o":"m 696 0 l 568 0 l 568 286 l 117 286 q 103 286 91 291 q 80 296 71 305 q 62 313 58 325 q 53 337 53 350 l 53 700 l 180 700 l 180 414 l 568 414 l 568 700 l 696 700 z"},"~":{"x_min":0,"x_max":633,"ha":633,"o":"m 581 296 q 570 286 556 277 q 542 268 525 261 q 508 255 489 251 q 470 247 451 247 q 420 247 386 255 q 352 264 316 273 q 280 283 245 292 q 210 300 179 300 q 162 300 144 295 q 125 290 109 282 q 92 274 77 265 q 63 255 54 245 l 54 373 q 64 383 79 393 q 94 402 112 408 q 129 415 148 419 q 166 423 183 423 q 212 423 247 415 q 282 406 318 396 q 354 386 389 377 q 424 369 456 369 q 472 369 490 374 q 508 379 525 387 q 542 395 556 405 q 571 415 581 425 z"},"D":{"x_min":0,"x_max":823,"ha":823,"o":"m 772 293 q 772 229 750 175 q 728 122 689 83 q 650 44 596 22 q 542 0 479 0 l 137 0 q 123 0 111 5 q 100 10 91 18 q 83 27 78 39 q 73 50 73 64 l 73 636 q 73 649 78 661 q 83 673 91 682 q 100 690 111 695 q 123 700 137 700 l 479 700 q 542 700 596 678 q 650 656 689 617 q 728 579 750 525 q 772 471 772 407 z m 646 407 q 646 444 634 475 q 622 506 600 528 q 578 549 547 561 q 517 573 479 573 l 200 573 l 200 127 l 479 127 q 517 127 547 139 q 578 151 600 173 q 622 194 634 225 q 646 255 646 293 z"},"^":{"x_min":0,"x_max":430,"ha":430,"o":"m 416 340 l 211 567 l 15 341 l 15 505 l 168 681 q 186 701 211 701 q 224 701 235 696 q 247 691 255 682 l 416 502 z"},"0":{"x_min":0,"x_max":925,"ha":925,"o":"m 871 293 q 871 250 860 212 q 849 173 829 141 q 809 108 781 82 q 754 56 721 38 q 689 20 652 10 q 616 0 578 0 l 349 0 q 310 0 273 10 q 237 20 204 38 q 172 56 145 82 q 117 108 97 141 q 78 173 67 212 q 56 250 56 293 l 56 407 q 56 472 80 525 q 104 579 145 618 q 185 657 238 678 q 291 700 349 700 l 578 700 q 616 700 652 690 q 689 681 721 662 q 754 644 781 618 q 809 592 829 560 q 849 527 860 489 q 871 450 871 407 z m 743 407 q 743 445 729 476 q 715 506 693 528 q 670 550 640 562 q 610 574 578 573 l 349 573 q 317 574 287 562 q 257 551 234 529 q 210 507 197 476 q 183 445 183 407 l 183 293 q 183 255 196 224 q 210 193 233 172 q 256 150 286 138 q 316 126 349 127 l 578 127 q 615 127 646 139 q 676 152 698 174 q 719 196 731 226 q 743 257 743 293 z m 688 500 q 695 489 697 477 q 700 464 697 452 q 695 440 688 430 q 681 419 669 412 l 327 183 q 318 177 310 174 q 301 172 292 172 q 276 172 262 179 q 248 187 239 200 q 231 211 229 223 q 227 236 229 248 q 231 260 238 270 q 245 281 256 288 l 600 517 q 610 524 623 527 q 635 529 647 527 q 659 524 670 518 q 680 511 688 500 z"},"F":{"x_min":0,"x_max":738,"ha":738,"o":"m 653 286 l 251 286 l 251 414 l 653 414 z m 709 573 l 201 573 l 201 0 l 74 0 l 74 636 q 74 649 79 661 q 83 673 92 682 q 101 690 112 695 q 124 700 138 700 l 709 700 z"},"`":{"x_min":0,"x_max":557,"ha":557,"o":"m 149 776 l 385 639 l 351 566 l 96 657 z"},"k":{"x_min":0,"x_max":691,"ha":691,"o":"m 680 0 l 497 0 l 241 247 q 219 267 221 296 q 222 310 228 322 q 234 333 245 342 l 477 529 l 680 529 l 381 288 z m 188 0 l 62 0 l 62 751 l 188 751 z"},"u":{"x_min":0,"x_max":696,"ha":696,"o":"m 637 64 q 637 50 632 39 q 627 27 618 18 q 610 10 598 5 q 587 0 574 0 l 287 0 q 263 0 237 5 q 210 11 184 23 q 158 35 134 53 q 110 71 92 97 q 74 124 63 158 q 52 192 52 235 l 52 528 l 179 528 l 179 235 q 179 210 187 190 q 196 170 210 156 q 225 142 245 135 q 265 127 288 127 l 510 127 l 510 528 l 637 528 z"},"]":{"x_min":0,"x_max":365,"ha":365,"o":"m 300 -51 q 300 -63 295 -75 q 290 -87 281 -96 q 271 -105 260 -110 q 249 -115 236 -115 l 37 -115 l 37 13 l 172 13 l 170 686 l 35 686 l 35 813 l 234 813 q 247 813 259 808 q 271 803 280 795 q 289 786 294 775 q 300 763 300 750 z"},"U":{"x_min":0,"x_max":833,"ha":833,"o":"m 760 64 q 760 50 755 39 q 750 27 741 18 q 732 10 721 5 q 709 0 696 0 l 410 0 q 369 0 328 9 q 286 18 247 36 q 208 54 174 83 q 140 111 115 150 q 89 188 74 239 q 60 289 60 350 l 60 700 l 187 700 l 187 350 q 187 296 201 259 q 216 222 239 197 q 262 172 290 158 q 317 144 342 137 q 366 130 385 129 q 404 127 410 127 l 633 127 l 633 700 l 760 700 z"},"o":{"x_min":0,"x_max":682,"ha":682,"o":"m 634 178 q 634 146 625 119 q 617 93 604 73 q 590 54 572 40 q 554 26 534 17 q 514 8 494 4 q 474 0 456 0 l 227 0 q 200 0 169 9 q 138 19 111 40 q 84 61 67 95 q 49 129 49 178 l 49 350 q 49 399 67 433 q 84 467 111 488 q 138 509 169 519 q 200 528 227 528 l 456 528 q 504 528 539 510 q 573 493 594 466 q 615 439 624 408 q 634 377 634 350 z m 507 349 q 507 375 494 388 q 480 401 456 401 l 228 401 q 202 401 189 388 q 176 375 176 350 l 176 178 q 176 153 189 140 q 202 127 228 127 l 456 127 q 481 127 494 140 q 507 153 507 178 z"},"N":{"x_min":0,"x_max":847,"ha":847,"o":"m 773 54 q 773 41 768 29 q 763 17 755 9 q 746 0 734 -5 q 723 -10 709 -10 q 698 -10 686 -5 q 674 -1 665 9 l 201 493 l 201 0 l 74 0 l 74 646 q 74 666 85 681 q 96 697 113 705 q 131 712 150 709 q 169 705 183 691 l 646 207 l 646 700 l 773 700 z"},"+":{"x_min":0,"x_max":539,"ha":539,"o":"m 499 293 l 327 293 l 327 121 l 213 121 l 213 293 l 41 293 l 41 407 l 213 407 l 213 579 l 327 579 l 327 407 l 499 407 z"},"G":{"x_min":0,"x_max":823,"ha":823,"o":"m 765 64 q 765 50 760 39 q 755 27 746 18 q 738 10 726 5 q 714 0 701 0 l 243 0 q 225 0 205 4 q 185 8 165 17 q 145 26 127 40 q 109 54 95 73 q 81 93 73 119 q 64 146 64 178 l 64 522 q 64 540 69 560 q 73 580 82 600 q 90 620 104 638 q 119 656 138 670 q 158 684 184 692 q 210 700 243 700 l 759 700 l 759 573 l 243 573 q 218 573 205 560 q 191 547 191 521 l 191 178 q 191 154 205 140 q 218 127 243 127 l 638 127 l 638 286 l 300 286 l 300 414 l 701 414 q 714 414 726 409 q 738 404 746 395 q 755 386 760 375 q 765 363 765 350 z"},"q":{"x_min":0,"x_max":690,"ha":690,"o":"m 634 -165 l 507 -165 l 507 350 q 507 375 494 388 q 481 401 456 401 l 227 401 q 203 401 189 386 q 176 372 176 350 l 176 178 q 176 153 189 140 q 202 127 228 127 l 456 127 l 456 0 l 227 0 q 200 0 169 9 q 138 19 111 40 q 84 61 67 95 q 49 129 49 178 l 49 350 q 49 368 53 388 q 57 408 66 428 q 75 448 89 466 q 103 484 122 498 q 142 511 168 520 q 194 528 227 528 l 456 528 q 474 528 494 524 q 514 520 534 511 q 554 502 572 488 q 590 474 604 454 q 617 435 625 409 q 634 383 634 350 z"},"d":{"x_min":0,"x_max":700,"ha":700,"o":"m 639 178 q 639 146 630 119 q 622 93 608 73 q 595 54 577 40 q 559 26 539 17 q 519 8 499 4 q 479 0 460 0 l 231 0 q 199 0 173 8 q 147 17 127 31 q 107 44 94 62 q 80 81 71 100 q 62 120 58 140 q 54 161 54 178 l 54 350 q 54 399 72 433 q 89 467 116 488 q 143 509 174 519 q 205 528 231 528 l 460 528 l 460 401 l 232 401 q 207 401 194 388 q 181 375 181 350 l 181 179 q 181 153 194 140 q 207 127 231 127 l 460 127 q 486 127 499 140 q 512 153 512 178 l 512 751 l 639 751 z"},"1":{"x_min":0,"x_max":354,"ha":354,"o":"m 277 0 l 149 0 l 149 573 l 35 573 l 35 700 l 277 700 z"},"5":{"x_min":0,"x_max":750,"ha":750,"o":"m 706 178 q 706 160 701 140 q 697 120 688 100 q 679 81 665 62 q 651 44 632 31 q 612 17 586 8 q 560 0 528 0 l 62 0 l 62 127 l 528 127 q 552 127 565 142 q 578 156 578 178 l 578 235 q 578 260 565 273 q 552 286 527 286 l 241 286 q 191 286 157 304 q 124 322 103 349 q 82 375 72 407 q 62 438 62 465 l 62 700 l 647 700 l 647 573 l 189 573 l 189 465 q 189 439 203 427 q 216 414 241 414 l 528 414 q 554 414 585 405 q 617 395 643 374 q 670 353 688 318 q 706 284 706 235 z"}}}
